<?xml version="1.0" standalone="no"?><!DOCTYPE svg PUBLIC "-//W3C//DTD SVG 1.1//EN" "http://www.w3.org/Graphics/SVG/1.1/DTD/svg11.dtd"><svg t="1544418609686" class="icon" style="" viewBox="0 0 1024 1024" version="1.1" xmlns="http://www.w3.org/2000/svg" p-id="1250" xmlns:xlink="http://www.w3.org/1999/xlink" width="200" height="200"><defs><style type="text/css"></style></defs><path d="M891.71 94.11h-759.4A87.29 87.29 0 0 0 45 181.39v505.3A87.29 87.29 0 0 0 132.31 774h350.12v113.45h-91.8c-15.33 0-28.48 11.63-29.59 26.92a29.1 29.1 0 0 0 29 31.27h242.38c15.33 0 28.48-11.63 29.59-26.92a29.1 29.1 0 0 0-29-31.27h-92.39V774h351.09A87.29 87.29 0 0 0 979 686.69v-505.3a87.29 87.29 0 0 0-87.29-87.28z m-759.4 57.22h760.37a29.1 29.1 0 0 1 29.1 29.1v324.9H103.22V180.42a29.1 29.1 0 0 1 29.09-29.09z m760.37 564.45H132.31a29.1 29.1 0 0 1-29.1-29.1V564.49h818.56v122.2a29.1 29.1 0 0 1-29.09 29.09z" fill="#ffffff" p-id="1251"></path></svg>