<?xml version="1.0" standalone="no"?><!DOCTYPE svg PUBLIC "-//W3C//DTD SVG 1.1//EN" "http://www.w3.org/Graphics/SVG/1.1/DTD/svg11.dtd"><svg t="1544417975974" class="icon" style="" viewBox="0 0 1024 1024" version="1.1" xmlns="http://www.w3.org/2000/svg" p-id="1724" xmlns:xlink="http://www.w3.org/1999/xlink" width="200" height="200"><defs><style type="text/css"></style></defs><path d="M383.175789 165.972916c19.58509 0 35.596259-15.868212 35.596259-35.596259l0-11.86542L632.206642 118.511238l0 11.86542c0 19.58509 15.868212 35.596259 35.596259 35.596259 19.58509 0 35.596259-15.868212 35.596259-35.596259l0-94.780399c0-19.58509-15.868212-35.596259-35.596259-35.596259-19.58509 0-35.596259 15.868212-35.596259 35.596259l0 11.86542L418.772048 47.461678l0-11.86542c0-19.58509-15.868212-35.596259-35.596259-35.596259-19.58509 0-35.596259 15.868212-35.596259 35.596259L347.579531 130.519615C347.579531 150.104705 363.590699 165.972916 383.175789 165.972916L383.175789 165.972916z" fill="#2c2c2c" p-id="1725"></path><path d="M462.373891 952.95044l-225.871841 0c-47.604635 0-86.345944-39.742008-86.345944-88.490297L150.156105 206.858579c0-48.74829 38.74131-88.490297 86.345944-88.490297 19.58509 0 35.596259-15.868212 35.596259-35.596259S256.087139 47.318721 236.502049 47.318721C149.584277 47.318721 78.963588 118.940109 78.963588 206.858579l0 657.458607c0 88.061427 70.62069 159.682814 157.538462 159.682814l225.871841 0c19.58509 0 35.596259-15.868212 35.596259-35.596259C497.827192 968.818651 481.958981 952.95044 462.373891 952.95044L462.373891 952.95044z" fill="#2c2c2c" p-id="1726"></path><path d="M797.464774 47.318721c-19.58509 0-35.596259 15.868212-35.596259 35.596259 0 19.58509 15.868212 35.596259 35.596259 35.596259 47.604635 0 86.345944 39.742008 86.345944 88.490297l0 348.814742c0 19.58509 15.868212 35.596259 35.596259 35.596259 19.58509 0 35.596259-15.868212 35.596259-35.596259l0-348.814742C955.003236 118.940109 884.239589 47.318721 797.464774 47.318721L797.464774 47.318721z" fill="#2c2c2c" p-id="1727"></path><path d="M893.817699 669.324026 633.636211 937.368142l-126.659779-130.376658c-13.723859-14.152729-36.168086-14.438643-50.320815-0.714784-14.152729 13.723859-14.438643 36.168086-0.714784 50.320815l152.106101 156.68072c0.142957 0.142957 0.285914 0.142957 0.428871 0.285914 0.142957 0.142957 0.142957 0.285914 0.285914 0.428871 0.857741 0.857741 1.858439 1.429569 2.859137 2.28731 0.857741 0.571827 1.572525 1.286612 2.430267 1.858439 1.143655 0.714784 2.430267 1.286612 3.716878 2.001396 0.857741 0.428871 1.572525 1.000698 2.430267 1.286612 1.429569 0.571827 2.859137 1.000698 4.431663 1.286612 0.714784 0.142957 1.429569 0.428871 2.144353 0.571827 2.28731 0.428871 4.57462 0.714784 6.861929 0.714784s4.57462-0.285914 6.861929-0.714784c0.714784-0.142957 1.429569-0.428871 2.144353-0.571827 1.429569-0.428871 3.002094-0.714784 4.431663-1.286612 0.857741-0.285914 1.715482-0.857741 2.430267-1.286612 1.286612-0.571827 2.430267-1.143655 3.716878-2.001396 0.857741-0.571827 1.572525-1.286612 2.430267-1.858439 1.000698-0.714784 2.001396-1.429569 2.859137-2.28731 0.142957-0.142957 0.142957-0.285914 0.285914-0.428871 0.142957-0.142957 0.285914-0.142957 0.428871-0.285914l285.770766-294.348178c13.723859-14.152729 13.294988-36.596957-0.714784-50.320815C930.128742 655.02834 907.541558 655.314254 893.817699 669.324026L893.817699 669.324026z" fill="#2c2c2c" p-id="1728"></path><path d="M730.560963 398.849644l-410.286193 0c-27.161804 0-49.320117-22.158314-49.320117-49.320117l0 0c0-27.161804 22.158314-49.320117 49.320117-49.320117l410.286193 0c27.161804 0 49.320117 22.158314 49.320117 49.320117l0 0C779.88108 376.69133 757.722767 398.849644 730.560963 398.849644z" fill="#2c2c2c" p-id="1729"></path><path d="M730.560963 566.109172l-410.286193 0c-27.161804 0-49.320117-22.158314-49.320117-49.320117l0 0c0-27.161804 22.158314-49.320117 49.320117-49.320117l410.286193 0c27.161804 0 49.320117 22.158314 49.320117 49.320117l0 0C779.88108 543.950859 757.722767 566.109172 730.560963 566.109172z" fill="#2c2c2c" p-id="1730"></path><path d="M730.560963 744.805249l-410.286193 0c-27.161804 0-49.320117-22.158314-49.320117-49.320117l0 0c0-27.161804 22.158314-49.320117 49.320117-49.320117l410.286193 0c27.161804 0 49.320117 22.158314 49.320117 49.320117l0 0C779.88108 722.646936 757.722767 744.805249 730.560963 744.805249z" fill="#2c2c2c" p-id="1731"></path></svg>